<svg xmlns="http://www.w3.org/2000/svg" version="1.1" xmlns:xlink="http://www.w3.org/1999/xlink" width="2000" height="88" viewBox="0 0 2000 88"><svg xml:space="preserve" width="2000" height="88" data-version="2" data-id="lg_LHPZuGjxFKEvGq9llk" viewBox="0 0 82 88" x="0" y="0"><rect width="100%" height="100%" fill="transparent"></rect><path fill="#4caf50" d="M34.039 84.949c-.19 0-.38 0-.571-.095-.476-.095-.856-.38-1.141-.666L3.315 55.176a2.599 2.599 0 0 1-.761-1.807 2.599 2.599 0 0 1 2.568-2.568c.666 0 1.332.285 1.808.76L32.802 77.53l1.807-5.802c1.237-3.71 2.378-6.944 3.52-9.797 2.663-6.944 5.422-13.222 8.37-19.12a151.5 151.5 0 0 1 4.947-9.13 116.625 116.625 0 0 1 5.707-8.752 75.802 75.802 0 0 1 6.658-7.99l1.522-1.522-1.807-1.997C48.782 25.499 33.373 58.79 30.519 68.683c-3.52-3.805-5.326-8.085-5.326-13.031.095-10.083 8.085-22.734 21.972-34.91 9.417-8.275 22.449-14.648 29.107-17.406-5.327 7.134-8.18 14.363-9.702 21.402h-2.473c-.286 0-.571 0-.952.095h-.19c-.19 0-.285 0-.475.095a99.097 99.097 0 0 1 6.373-9.322l-2.093-1.712c-.951 1.046-1.998 2.093-2.854 3.234a75.759 75.759 0 0 0-5.897 8.37c-3.139 5.137-6.088 11.035-9.132 18.454-2.473 5.993-4.756 12.27-6.943 19.31-1.142 3.71-2.093 6.848-2.949 9.892L37.653 78.1c-.38 1.427-.856 3.234-1.236 4.946-.19 1.142-1.237 1.903-2.378 1.903m13.507-2.568c-2.378 0-4.376-.761-5.327-1.903.095-.38.285-.951.38-1.712.381-1.427.857-3.52 1.522-6.183 0 0 .096-.095.096-.19.38-.38.856-.951 1.617-1.712 1.046-1.047 3.043-2.949 5.517-4.661a58.165 58.165 0 0 1 3.234-2.093c.665-.38 1.141-.57 1.522-.856l.38-.19c.38-.19.761-.38 1.046-.476l1.617-.285 1.903-.57-.57-2.664-2.094.285-1.426.286c-.476.095-.952.19-1.332.38l-.38.095c-.571.095-1.142.286-1.903.571-1.141.38-2.473.951-3.995 1.617-.76.38-1.617.761-2.473 1.237.666-2.188 1.236-4.28 1.902-6.373.856-.857 3.71-3.52 4.947-4.28.76-.476 2.187-1.142 3.329-1.713l.856-.38c1.046-.571 4.375-2.188 4.375-2.188l3.425-1.712c.095 1.521.19 2.948.285 4.375.38 7.23.761 13.507-.951 17.692-4.47 9.988-12.176 13.603-17.502 13.603m4.09-34.149c.285-.856.57-1.712.856-2.473.38-.95.666-1.902 1.141-2.948l.096-.095c.665-.571 2.092-1.808 3.71-2.95.094-.094.094-.094.19-.094 1.426-.761 5.992-2.854 6.087-2.854l1.807-.76c-.095 3.233 0 6.467.096 9.511l-4.756.19c-.571 0-1.142.095-1.903.19h-.285c-1.047.19-1.998.476-3.044.762-1.237.38-2.283.76-3.234 1.236-.285.095-.57.19-.761.285m5.422-13.126c.666-1.332 1.331-2.759 2.092-3.995.476-.476 1.237-1.046 1.998-1.617.095-.095.19-.095.19-.19.761-.476 3.234-1.617 4.185-1.998l.857-.38c-.381 2.473-.666 4.946-.761 7.324h-3.235c-.38 0-.856 0-1.331.095h-.19c-.952.095-1.808.285-2.569.476-.57.095-.95.19-1.236.285"></path><path fill="#4caf50" d="M72.562 6.57a58.052 58.052 0 0 0-4.28 8.37l-2.378-1.997c-.476.476-.856.951-1.332 1.427l-1.902-2.093C48.782 23.692 34.229 53.75 29.949 66.02c-2.378-3.044-3.425-6.468-3.425-10.273.095-9.702 7.99-21.973 21.592-33.863C55.631 15.321 65.62 9.9 72.562 6.57M66 22.17c-.095.475-.19.856-.285 1.331h-.571c.285-.475.57-.95.856-1.331m-1.332 7.038c-.19 1.237-.285 2.474-.38 3.71h-2.093c-.475 0-.951 0-1.427.095h-.38c-.285 0-.57.095-.856.095.19-.38.38-.76.666-1.236.475-.38 1.046-.856 1.712-1.332l.095-.095h.095c.38-.19 1.522-.76 2.568-1.237m-.57 8.942c0 2.092 0 4.185.095 6.183l-2.664.095h-.665c-.666 0-1.332.095-2.093.19h-.476c-1.046.19-2.092.476-3.139.76-.475.096-.856.286-1.236.476l.856-2.282c.666-.666 1.997-1.713 3.424-2.664 1.142-.666 4.566-2.188 5.898-2.758M48.02 42.716c-.095.285-.19.475-.285.76-2.473 5.993-4.851 12.366-7.039 19.5-1.141 3.71-2.093 6.849-2.949 9.893l-1.331 4.946c-.38 1.427-.856 3.234-1.237 4.946-.095.476-.57.856-1.141.856h-.286l-.57-.285L4.266 54.225a1.206 1.206 0 0 1 0-1.712c.286-.285.666-.38.856-.38.19 0 .571 0 .856.38L30.33 76.959l3.139 3.139 1.332-4.186 1.141-3.614c1.237-3.71 2.378-6.849 3.424-9.798 2.664-6.943 5.422-13.221 8.276-19.024.095-.285.285-.57.38-.76m16.361 5.992c0 .761.095 1.522.095 2.283.38 7.039.761 13.127-.856 17.122-3.995 9.512-11.129 12.936-15.98 12.936-1.807 0-3.044-.476-3.805-.951.095-.286.19-.571.19-.952.286-1.331.856-3.329 1.427-5.802.285-.38.856-.856 1.522-1.522.951-.951 2.949-2.853 5.327-4.47 1.141-.856 2.188-1.427 3.139-1.998.57-.285 1.046-.57 1.427-.76l.38-.191c.38-.19.666-.285.951-.38l.761-.286.38-.19.952-.286.951-.285-1.141-5.232-.952.096-.665.095-.286-.095h-.19l-.951.19-.476.095c-.475.095-1.046.19-1.522.38l-.285.096c-.57.19-1.237.38-1.998.665a35.08 35.08 0 0 0-3.804 1.522c.285-1.046.665-2.092.95-3.044 1.047-1.046 3.52-3.329 4.471-3.9.666-.38 2.188-1.14 3.234-1.616.286-.19.571-.286.761-.381 1.142-.57 4.28-2.188 4.376-2.188zM79.602.767h-.096c-4.375 1.331-21.592 9.036-33.102 19.024-16.74 14.553-31.77 36.335-15.504 51.174.095.095.095.095.19.095.19 0 .285-.095.285-.285.666-5.612 17.217-43.47 33.007-56.406-.57.475-1.046 1.046-1.617 1.617a68.494 68.494 0 0 0-6.754 8.18c-2.092 2.854-3.995 5.802-5.802 8.846-1.807 3.044-3.52 6.088-5.041 9.227-3.14 6.278-5.898 12.746-8.37 19.31-1.237 3.233-2.379 6.563-3.52 9.892l-1.142 3.71L7.786 50.61a3.81 3.81 0 0 0-2.759-1.141c-.951 0-1.997.38-2.758 1.141a3.904 3.904 0 0 0 0 5.517L31.185 85.14a4.311 4.311 0 0 0 1.807 1.046c.286.095.666.095.952.095a3.942 3.942 0 0 0 3.804-2.948c.38-1.617.761-3.234 1.237-4.851l1.332-4.947c.95-3.329 1.902-6.563 2.948-9.797 1.998-6.468 4.28-12.936 6.944-19.214 2.568-6.278 5.517-12.46 9.037-18.263 1.807-2.854 3.71-5.707 5.802-8.276.856-1.141 1.902-2.092 2.853-3.139-2.187 2.854-5.136 7.134-8.085 12.27 1.237-.475 2.473-.76 3.425-.855.38 0 .76-.095 1.046-.095h.666s-3.234 1.426-4.28 1.997c-.096.095-.19.19-.286.19-.856.571-1.617 1.237-2.283 1.808-1.236 2.283-2.378 4.66-3.52 7.229a5.5 5.5 0 0 1 1.332-.476c.856-.285 1.808-.57 2.664-.76.856-.191 1.712-.381 2.378-.476.57-.095 1.046-.095 1.426-.095h.857s-4.756 2.092-6.183 2.853c-.095.095-.19.095-.286.19-1.426 1.047-2.853 2.188-3.804 3.044l-.286.286c-.475 1.046-.856 2.187-1.236 3.329-.666 1.902-1.332 3.805-1.903 5.612a122.68 122.68 0 0 1 3.52-1.712 20.829 20.829 0 0 1 3.139-1.142c1.046-.285 1.997-.57 2.853-.666.856-.095 1.522-.19 1.998-.19h.76s-3.519 1.617-4.565 2.093c-1.046.57-3.234 1.522-4.28 2.188-1.522.95-5.137 4.47-5.422 4.756-1.142 3.614-2.093 7.038-2.949 9.987 1.522-.951 3.33-1.997 5.232-2.853 1.331-.571 2.568-1.142 3.9-1.617.665-.19 1.236-.381 1.807-.571.57-.19 1.141-.286 1.617-.38l1.427-.286c.38-.095.76-.095 1.141-.19.57-.095.951-.095.951-.095s-.285.095-.95.285c-.286.095-.667.19-1.047.285-.38.19-.856.286-1.332.571-.475.19-.951.476-1.522.666-.57.285-1.046.57-1.617.856-1.141.57-2.283 1.332-3.424 2.093-2.283 1.522-4.28 3.329-5.707 4.756-.761.665-1.332 1.331-1.713 1.712l-.38.38c-1.237 4.661-1.902 7.705-2.093 8.561 0 .19 0 .285.095.476 1.142 1.807 3.615 2.853 6.659 2.853 5.897 0 14.078-3.995 18.453-14.553 5.612-13.317-8.37-42.138 13.793-67.916.095-.19 0-.475-.286-.475"></path></svg></svg>